<?xml version="1.0" encoding="utf-8"?>
<!-- Generator: Adobe Illustrator 18.1.1, SVG Export Plug-In . SVG Version: 6.00 Build 0)  -->
<!DOCTYPE svg PUBLIC "-//W3C//DTD SVG 1.1//EN" "http://www.w3.org/Graphics/SVG/1.1/DTD/svg11.dtd">
<svg version="1.1" id="Layer_1" xmlns="http://www.w3.org/2000/svg" xmlns:xlink="http://www.w3.org/1999/xlink" x="0px" y="0px"
	 viewBox="0 90 612 612" enable-background="new 0 90 612 612" xml:space="preserve">
<path display="none" fill="#FFFFFF" d="M252.1,316.1l-0.6-3.8c-0.8-7.3-1-14.5-0.6-21.6c0.4-7.5,2.1-14.4,5-20.8
	c2.9-6.7,6.4-12.4,10.4-17.2c4.4-5.2,9.9-9.2,16.6-12c6.9-3.1,14.4-4.6,22.6-4.6c13.7,0,25.1,3.9,34.2,11.8
	c9.2,8,15.2,17.6,18.2,28.8c2.9,11.3,3.5,23.2,1.8,35.6l-0.6,3.8c-0.1,1.3-0.9,4.5-2.2,9.6c-0.9,4.4-2.3,9-4,13.8
	c-1.7,4.5-4,9.3-6.8,14.4c-2.4,4.7-5.5,9.3-9.4,13.8c-3.3,3.5-7.8,6.7-13.4,9.6c-5.2,2.5-10.9,3.8-17.2,3.8
	c-6.1,0-11.9-1.3-17.4-3.8c-5.6-2.8-10.1-6.1-13.4-10c-3.3-3.7-6.6-8.1-9.8-13.2c-2.9-4.8-5.2-9.7-6.8-14.6
	c-1.9-5.2-3.3-9.7-4.2-13.4C253.3,321.7,252.5,318.4,252.1,316.1z M435.8,440.7c6.7,11.3,10,25.6,10,42.7v49.7
	c0,0.5-1.9,1.4-5.8,2.6c-0.9,0.3-3.4,1-7.4,2.1s-8,2.2-12,3.3c-14.6,3.2-25.6,5.5-33,6.8c-11.3,2-24.3,3.8-39,5.4
	c-14.9,1.6-29.1,2.4-42.5,2.4s-27.7-0.8-42.7-2.4c-12-1.1-25.2-2.9-39.6-5.4c-5.9-1.1-16.2-3.3-31.2-6.8c-5.7-1.3-12.8-3.3-21.2-5.8
	l-5.4-2.2v-49.7c0-17.8,3.1-32.2,9.2-42.9c8.7-15.3,18.6-26.5,30-33.6c6.3-3.9,15.3-6.7,27.2-8.4s23-2.6,33.6-2.6l33.4,33.4
	L286,455.9v59.9l20.4,21.6l19.6-21.6v-59.9l-13.6-26.6l33-33.4c27.8,0,47.1,3.5,57.9,10.4C416.1,414.5,426.9,426,435.8,440.7z"/>
<g>
	<rect x="0.3" y="90" fill="#E41B13" width="612" height="612"/>
	<g>
		<rect x="167.6" y="238.5" fill="#FFFFFF" width="262.5" height="35"/>
		<rect x="167.6" y="308.5" fill="#FFFFFF" width="262.5" height="35"/>
		<rect x="167.6" y="378.5" fill="#FFFFFF" width="140" height="35"/>
		<rect x="167.6" y="448.5" fill="#FFFFFF" width="105" height="35"/>
		<rect x="167.6" y="518.5" fill="#FFFFFF" width="70" height="35"/>
		<path fill="#FFFFFF" d="M409.2,385.7l31.8,32c2.7,2.7,4,6,3.9,9.9c0,3.8-1.2,7-3.6,9.4l-94.1,94.2L282,544.8l13.6-65.6
			c59.5-59.8,90.8-91.2,93.9-94.3c2.3-2.3,5.5-3.5,9.6-3.3C403.1,381.6,406.5,383,409.2,385.7z M377.1,418.5l-65.7,65.9l13,13
			l65.1-66.4L377.1,418.5z M342.2,515.2l65.6-65.8l-12.6-12.7l-65.7,65.8L342.2,515.2z"/>
	</g>
</g>
</svg>
